{
	"asset":{
		"generator":"Khronos glTF Blender I/O v4.3.47",
		"version":"2.0"
	},
	"scene":0,
	"scenes":[
		{
			"name":"Scene",
			"nodes":[
				0,
				1
			]
		}
	],
	"nodes":[
		{
			"mesh":0,
			"name":"Circle",
			"rotation":[
				0.05903303250670433,
				0.7046383023262024,
				-0.05903303250670433,
				0.7046382427215576
			],
			"scale":[
				0.05794486775994301,
				0.05542552471160889,
				0.05542552471160889
			],
			"translation":[
				0.6601495742797852,
				-0.13433682918548584,
				-0.05765253305435181
			]
		},
		{
			"mesh":1,
			"name":"BezierCurve",
			"rotation":[
				0,
				0.7071068286895752,
				0,
				0.7071068286895752
			],
			"scale":[
				0.2519342005252838,
				0.2519342005252838,
				0.2519342005252838
			],
			"translation":[
				-0.1939699798822403,
				-1.43141770362854,
				0.002948164939880371
			]
		}
	],
	"materials":[
		{
			"doubleSided":true,
			"name":"Material.002",
			"pbrMetallicRoughness":{
				"baseColorTexture":{
					"index":0
				},
				"metallicFactor":0,
				"roughnessFactor":0.23181818425655365
			}
		},
		{
			"doubleSided":true,
			"name":"Material.001",
			"pbrMetallicRoughness":{
				"baseColorTexture":{
					"index":1
				},
				"metallicFactor":0,
				"roughnessFactor":0
			}
		}
	],
	"meshes":[
		{
			"name":"Circle",
			"primitives":[
				{
					"attributes":{
						"POSITION":0,
						"NORMAL":1,
						"TEXCOORD_0":2,
						"COLOR_0":3,
						"COLOR_1":4
					},
					"indices":5,
					"material":0
				}
			]
		},
		{
			"name":"BezierCurve",
			"primitives":[
				{
					"attributes":{
						"POSITION":6,
						"NORMAL":7,
						"TEXCOORD_0":8
					},
					"indices":9,
					"material":1
				}
			]
		}
	],
	"textures":[
		{
			"sampler":0,
			"source":0
		},
		{
			"sampler":0,
			"source":1
		}
	],
	"images":[
		{
			"mimeType":"image/jpeg",
			"name":"LIVER037",
			"uri":"intestines2.jpg"
		},
		{
			"mimeType":"image/jpeg",
			"name":"liv",
			"uri":"intestines1.jpg"
		}
	],
	"accessors":[
		{
			"bufferView":0,
			"componentType":5126,
			"count":2808,
			"max":[
				4.243793487548828,
				25.497695922851562,
				3.7760262489318848
			],
			"min":[
				-9.206497192382812,
				-23.253087997436523,
				-33.826595306396484
			],
			"type":"VEC3"
		},
		{
			"bufferView":1,
			"componentType":5126,
			"count":2808,
			"type":"VEC3"
		},
		{
			"bufferView":2,
			"componentType":5126,
			"count":2808,
			"type":"VEC2"
		},
		{
			"bufferView":3,
			"componentType":5121,
			"count":2808,
			"normalized":true,
			"type":"VEC4"
		},
		{
			"bufferView":4,
			"componentType":5123,
			"count":2808,
			"normalized":true,
			"type":"VEC4"
		},
		{
			"bufferView":5,
			"componentType":5123,
			"count":7902,
			"type":"SCALAR"
		},
		{
			"bufferView":6,
			"componentType":5126,
			"count":6440,
			"max":[
				0.6089226007461548,
				12.809351921081543,
				3.7690088748931885
			],
			"min":[
				-1.2571498155593872,
				5.1331048011779785,
				-2.9763920307159424
			],
			"type":"VEC3"
		},
		{
			"bufferView":7,
			"componentType":5126,
			"count":6440,
			"type":"VEC3"
		},
		{
			"bufferView":8,
			"componentType":5126,
			"count":6440,
			"type":"VEC2"
		},
		{
			"bufferView":9,
			"componentType":5123,
			"count":17292,
			"type":"SCALAR"
		}
	],
	"bufferViews":[
		{
			"buffer":0,
			"byteLength":33696,
			"byteOffset":0,
			"target":34962
		},
		{
			"buffer":0,
			"byteLength":33696,
			"byteOffset":33696,
			"target":34962
		},
		{
			"buffer":0,
			"byteLength":22464,
			"byteOffset":67392,
			"target":34962
		},
		{
			"buffer":0,
			"byteLength":11232,
			"byteOffset":89856,
			"target":34962
		},
		{
			"buffer":0,
			"byteLength":22464,
			"byteOffset":101088,
			"target":34962
		},
		{
			"buffer":0,
			"byteLength":15804,
			"byteOffset":123552,
			"target":34963
		},
		{
			"buffer":0,
			"byteLength":77280,
			"byteOffset":139356,
			"target":34962
		},
		{
			"buffer":0,
			"byteLength":77280,
			"byteOffset":216636,
			"target":34962
		},
		{
			"buffer":0,
			"byteLength":51520,
			"byteOffset":293916,
			"target":34962
		},
		{
			"buffer":0,
			"byteLength":34584,
			"byteOffset":345436,
			"target":34963
		}
	],
	"samplers":[
		{
			"magFilter":9729,
			"minFilter":9987
		}
	],
	"buffers":[
		{
			"byteLength":380020,
			"uri":"intestines.bin"
		}
	]
}
