{
	"asset":{
		"generator":"Khronos glTF Blender I/O v4.3.47",
		"version":"2.0"
	},
	"extensionsUsed":[
		"KHR_materials_specular",
		"KHR_materials_ior"
	],
	"scene":0,
	"scenes":[
		{
			"name":"Scene",
			"nodes":[
				0,
				1
			]
		}
	],
	"nodes":[
		{
			"name":"Empty",
			"rotation":[
				0.5,
				0.5,
				-0.5,
				0.5
			],
			"scale":[
				1.6195381879806519,
				1.6195381879806519,
				1.6195381879806519
			],
			"translation":[
				0,
				4.075684070587158,
				-0.4209626615047455
			]
		},
		{
			"mesh":0,
			"name":"Circle",
			"rotation":[
				0.28214356303215027,
				0.6483787894248962,
				-0.28214356303215027,
				0.6483787298202515
			],
			"scale":[
				0.09125705808401108,
				0.0912570133805275,
				0.0912570133805275
			]
		}
	],
	"materials":[
		{
			"doubleSided":true,
			"extensions":{
				"KHR_materials_specular":{
					"specularFactor":0.800000011920929
				},
				"KHR_materials_ior":{
					"ior":1.4500000476837158
				}
			},
			"name":"Material.001",
			"pbrMetallicRoughness":{
				"baseColorTexture":{
					"index":0
				},
				"metallicFactor":0,
				"roughnessFactor":0.1409091055393219
			}
		}
	],
	"meshes":[
		{
			"name":"Circle.001",
			"primitives":[
				{
					"attributes":{
						"POSITION":0,
						"NORMAL":1,
						"TEXCOORD_0":2
					},
					"indices":3,
					"material":0
				}
			]
		}
	],
	"textures":[
		{
			"sampler":0,
			"source":0
		}
	],
	"images":[
		{
			"mimeType":"image/jpeg",
			"name":"jeludok",
			"uri":"stomach.jpg"
		}
	],
	"accessors":[
		{
			"bufferView":0,
			"componentType":5126,
			"count":1025,
			"max":[
				5.427055358886719,
				10.136090278625488,
				1.0726968050003052
			],
			"min":[
				-5.6368231773376465,
				-8.210217475891113,
				-23.44404411315918
			],
			"type":"VEC3"
		},
		{
			"bufferView":1,
			"componentType":5126,
			"count":1025,
			"type":"VEC3"
		},
		{
			"bufferView":2,
			"componentType":5126,
			"count":1025,
			"type":"VEC2"
		},
		{
			"bufferView":3,
			"componentType":5123,
			"count":3786,
			"type":"SCALAR"
		}
	],
	"bufferViews":[
		{
			"buffer":0,
			"byteLength":12300,
			"byteOffset":0,
			"target":34962
		},
		{
			"buffer":0,
			"byteLength":12300,
			"byteOffset":12300,
			"target":34962
		},
		{
			"buffer":0,
			"byteLength":8200,
			"byteOffset":24600,
			"target":34962
		},
		{
			"buffer":0,
			"byteLength":7572,
			"byteOffset":32800,
			"target":34963
		}
	],
	"samplers":[
		{
			"magFilter":9729,
			"minFilter":9987
		}
	],
	"buffers":[
		{
			"byteLength":40372,
			"uri":"stomach.bin"
		}
	]
}
