{
	"asset":{
		"generator":"Khronos glTF Blender I/O v4.3.47",
		"version":"2.0"
	},
	"scene":0,
	"scenes":[
		{
			"name":"Scene",
			"nodes":[
				0,
				1,
				2
			]
		}
	],
	"nodes":[
		{
			"mesh":0,
			"name":"Sphere",
			"scale":[
				0.30038994550704956,
				0.30038994550704956,
				0.30038994550704956
			]
		},
		{
			"name":"BezierCurve.004"
		},
		{
			"name":"BezierCurve"
		}
	],
	"materials":[
		{
			"doubleSided":true,
			"name":"Material.001",
			"pbrMetallicRoughness":{
				"baseColorTexture":{
					"index":0
				},
				"metallicFactor":0,
				"roughnessFactor":0.5
			}
		}
	],
	"meshes":[
		{
			"name":"Sphere",
			"primitives":[
				{
					"attributes":{
						"POSITION":0,
						"NORMAL":1,
						"TEXCOORD_0":2,
						"COLOR_0":3,
						"COLOR_1":4
					},
					"indices":5,
					"material":0
				}
			]
		}
	],
	"textures":[
		{
			"sampler":0,
			"source":0
		}
	],
	"images":[
		{
			"mimeType":"image/jpeg",
			"name":"macro-shot-fresh-beef-meat-steak",
			"uri":"heart.jpg"
		}
	],
	"accessors":[
		{
			"bufferView":0,
			"componentType":5126,
			"count":9238,
			"max":[
				1.0661883354187012,
				2.3802709579467773,
				1.2405509948730469
			],
			"min":[
				-1.5574896335601807,
				-2.0022287368774414,
				-1.1196503639221191
			],
			"type":"VEC3"
		},
		{
			"bufferView":1,
			"componentType":5126,
			"count":9238,
			"type":"VEC3"
		},
		{
			"bufferView":2,
			"componentType":5126,
			"count":9238,
			"type":"VEC2"
		},
		{
			"bufferView":3,
			"componentType":5121,
			"count":9238,
			"normalized":true,
			"type":"VEC4"
		},
		{
			"bufferView":4,
			"componentType":5123,
			"count":9238,
			"normalized":true,
			"type":"VEC4"
		},
		{
			"bufferView":5,
			"componentType":5123,
			"count":22788,
			"type":"SCALAR"
		}
	],
	"bufferViews":[
		{
			"buffer":0,
			"byteLength":110856,
			"byteOffset":0,
			"target":34962
		},
		{
			"buffer":0,
			"byteLength":110856,
			"byteOffset":110856,
			"target":34962
		},
		{
			"buffer":0,
			"byteLength":73904,
			"byteOffset":221712,
			"target":34962
		},
		{
			"buffer":0,
			"byteLength":36952,
			"byteOffset":295616,
			"target":34962
		},
		{
			"buffer":0,
			"byteLength":73904,
			"byteOffset":332568,
			"target":34962
		},
		{
			"buffer":0,
			"byteLength":45576,
			"byteOffset":406472,
			"target":34963
		}
	],
	"samplers":[
		{
			"magFilter":9729,
			"minFilter":9987
		}
	],
	"buffers":[
		{
			"byteLength":452048,
			"uri":"heart.bin"
		}
	]
}
