{
	"asset":{
		"generator":"Khronos glTF Blender I/O v4.3.47",
		"version":"2.0"
	},
	"extensionsUsed":[
		"KHR_materials_clearcoat",
		"KHR_materials_specular",
		"KHR_materials_sheen",
		"KHR_materials_ior"
	],
	"scene":0,
	"scenes":[
		{
			"name":"Scene",
			"nodes":[
				0,
				1,
				2,
				3,
				4,
				5,
				6,
				7,
				8,
				9,
				10,
				11,
				12,
				13,
				14,
				15,
				16
			]
		}
	],
	"nodes":[
		{
			"mesh":0,
			"name":"Sphere",
			"rotation":[
				0,
				-0.7071068286895752,
				0,
				0.7071067094802856
			],
			"scale":[
				0.15430182218551636,
				0.15430180728435516,
				0.15430182218551636
			],
			"translation":[
				0.16190123558044434,
				0.3947944641113281,
				-0.03042658418416977
			]
		},
		{
			"mesh":1,
			"name":"Sphere.001",
			"rotation":[
				0,
				-0.7071068286895752,
				0,
				0.7071067094802856
			],
			"scale":[
				0.15430182218551636,
				0.15430180728435516,
				0.15430182218551636
			],
			"translation":[
				0.16640910506248474,
				0.41479432582855225,
				-0.024588853120803833
			]
		},
		{
			"mesh":2,
			"name":"Plane",
			"rotation":[
				0,
				-0.7071068286895752,
				0,
				0.7071067094802856
			],
			"scale":[
				0.01973220892250538,
				0.01973220705986023,
				0.01973220892250538
			],
			"translation":[
				0.004557274281978607,
				0.8100876808166504,
				-0.10450829565525055
			]
		},
		{
			"name":"Empty",
			"rotation":[
				0.5,
				0.5,
				-0.5,
				0.5
			],
			"scale":[
				1.7594573497772217,
				1.7594573497772217,
				1.7594573497772217
			],
			"translation":[
				-2.9254448413848877,
				3.490358352661133,
				0.06052640452980995
			]
		},
		{
			"mesh":3,
			"name":"Sphere.002",
			"scale":[
				0.07445252686738968,
				0.07445252686738968,
				0.07445252686738968
			],
			"translation":[
				0.08999999612569809,
				0.2199999988079071,
				-0.07000000029802322
			]
		},
		{
			"name":"BezierCurve.004"
		},
		{
			"name":"BezierCurve"
		},
		{
			"mesh":4,
			"name":"Circle",
			"rotation":[
				0.05903303250670433,
				0.7046383023262024,
				-0.05903303250670433,
				0.7046382427215576
			],
			"scale":[
				0.016061624512076378,
				0.015363291837275028,
				0.015363291837275028
			],
			"translation":[
				0.25146567821502686,
				-0.6031096577644348,
				-0.03575107827782631
			]
		},
		{
			"mesh":5,
			"name":"BezierCurve.001",
			"rotation":[
				0,
				0.7071068286895752,
				0,
				0.7071067094802856
			],
			"scale":[
				0.06983315199613571,
				0.06983313709497452,
				0.06983315199613571
			],
			"translation":[
				0.014713950455188751,
				-0.9626448750495911,
				-0.018953289836645126
			]
		},
		{
			"name":"Empty.001",
			"rotation":[
				0.5,
				0.5,
				-0.5,
				0.5
			],
			"scale":[
				1.6195381879806519,
				1.6195381879806519,
				1.6195381879806519
			],
			"translation":[
				0,
				4.075684070587158,
				-0.4209626615047455
			]
		},
		{
			"mesh":6,
			"name":"Circle.001",
			"rotation":[
				0.06677578389644623,
				-0.745903730392456,
				0.004226130433380604,
				0.6626845598220825
			],
			"scale":[
				0.018029997125267982,
				0.018029991537332535,
				0.018029993399977684
			],
			"translation":[
				-0.09999999403953552,
				-0.07999999821186066,
				-0.029999999329447746
			]
		},
		{
			"name":"Empty.002",
			"rotation":[
				0.5,
				0.5,
				-0.5,
				0.5
			],
			"scale":[
				1.7820823192596436,
				1.7820823192596436,
				1.7820823192596436
			],
			"translation":[
				0,
				4.523428916931152,
				0.06888473033905029
			]
		},
		{
			"mesh":7,
			"name":"Cube",
			"rotation":[
				0,
				-0.7009093165397644,
				0,
				0.713250458240509
			],
			"scale":[
				0.0950731486082077,
				0.15211695432662964,
				0.05704386532306671
			],
			"translation":[
				-0.12999999523162842,
				-0.019999999552965164,
				0.03999999910593033
			]
		},
		{
			"name":"BezierCurve.002"
		},
		{
			"mesh":8,
			"name":"Cube.001",
			"scale":[
				0.12718318402767181,
				0.07384293526411057,
				0.07624471187591553
			],
			"translation":[
				0.020401619374752045,
				1.3792238235473633,
				-0.12413766980171204
			]
		},
		{
			"mesh":9,
			"name":"BezierCurve.003",
			"scale":[
				0.07641169428825378,
				0.07641169428825378,
				0.08734751492738724
			],
			"translation":[
				0.020401619374752045,
				1.1009876728057861,
				-0.12418359518051147
			]
		},
		{
			"mesh":10,
			"name":"\u043c\u0430\u043d\u0438\u043a\u0435\u043d",
			"rotation":[
				0.7071068286895752,
				0,
				0,
				0.7071068286895752
			]
		}
	],
	"materials":[
		{
			"doubleSided":true,
			"extensions":{
				"KHR_materials_clearcoat":{
					"clearcoatFactor":0.13977272808551788,
					"clearcoatRoughnessFactor":0.24818181991577148
				},
				"KHR_materials_specular":{
					"specularColorFactor":[
						0.8663636445999146,
						0.8663636445999146,
						0.8663636445999146
					]
				},
				"KHR_materials_sheen":{
					"sheenColorFactor":[
						1.0,
						1.0,
						1.0
					],
					"sheenRoughnessFactor":0.5
				},
				"KHR_materials_ior":{
					"ior":2.25
				}
			},
			"name":"Material.001",
			"pbrMetallicRoughness":{
				"baseColorFactor":[
					0.4350152015686035,
					0.023852281272411346,
					0.046340253204107285,
					1
				],
				"metallicFactor":0,
				"roughnessFactor":0.5266798138618469
			}
		},
		{
			"doubleSided":true,
			"name":"Material.006",
			"pbrMetallicRoughness":{
				"baseColorFactor":[
					0.2534952163696289,
					0.05403079837560654,
					0.06816978752613068,
					1
				],
				"metallicFactor":0,
				"roughnessFactor":0.2818181812763214
			}
		},
		{
			"doubleSided":true,
			"name":"Material.002",
			"pbrMetallicRoughness":{
				"baseColorFactor":[
					0.8001565933227539,
					0.012058163061738014,
					0.009556586854159832,
					1
				],
				"metallicFactor":0,
				"roughnessFactor":0.5
			}
		},
		{
			"doubleSided":true,
			"name":"Material.003",
			"pbrMetallicRoughness":{
				"baseColorFactor":[
					0.15955354273319244,
					0.051521554589271545,
					0.04720913618803024,
					1
				],
				"metallicFactor":0,
				"roughnessFactor":0.23181818425655365
			}
		},
		{
			"doubleSided":true,
			"name":"Material.005",
			"pbrMetallicRoughness":{
				"baseColorFactor":[
					0.8002911806106567,
					0.3510335087776184,
					0.4113759994506836,
					1
				],
				"metallicFactor":0,
				"roughnessFactor":0
			}
		},
		{
			"doubleSided":true,
			"extensions":{
				"KHR_materials_specular":{
					"specularFactor":0.800000011920929
				},
				"KHR_materials_ior":{
					"ior":1.4500000476837158
				}
			},
			"name":"Material.007",
			"pbrMetallicRoughness":{
				"baseColorFactor":[
					0.6784826517105103,
					0.12592515349388123,
					0.21986116468906403,
					1
				],
				"metallicFactor":0,
				"roughnessFactor":0.1409091055393219
			}
		},
		{
			"doubleSided":true,
			"name":"Material.008",
			"pbrMetallicRoughness":{
				"baseColorFactor":[
					0.20117458701133728,
					0.045456662774086,
					0,
					1
				],
				"metallicFactor":0,
				"roughnessFactor":0.19090908765792847
			}
		},
		{
			"doubleSided":true,
			"extensions":{
				"KHR_materials_specular":{
					"specularFactor":0.8545454740524292
				},
				"KHR_materials_ior":{
					"ior":1.4500000476837158
				}
			},
			"name":"brain",
			"pbrMetallicRoughness":{
				"baseColorFactor":[
					0.8001965880393982,
					0.12188930809497833,
					0.23782938718795776,
					1
				],
				"metallicFactor":0,
				"roughnessFactor":0.07727272808551788
			}
		},
		{
			"doubleSided":true,
			"extensions":{
				"KHR_materials_specular":{
					"specularFactor":0
				}
			},
			"name":"Material.004",
			"pbrMetallicRoughness":{
				"baseColorFactor":[
					0.800000011920929,
					0.800000011920929,
					0.800000011920929,
					1
				],
				"metallicFactor":0
			}
		}
	],
	"meshes":[
		{
			"name":"Sphere.001",
			"primitives":[
				{
					"attributes":{
						"POSITION":0,
						"NORMAL":1,
						"TEXCOORD_0":2
					},
					"indices":3,
					"material":0
				}
			]
		},
		{
			"name":"Sphere.004",
			"primitives":[
				{
					"attributes":{
						"POSITION":4,
						"NORMAL":5,
						"TEXCOORD_0":6
					},
					"indices":7,
					"material":0
				}
			]
		},
		{
			"name":"Plane",
			"primitives":[
				{
					"attributes":{
						"POSITION":8,
						"NORMAL":9,
						"TEXCOORD_0":10
					},
					"indices":11,
					"material":1
				}
			]
		},
		{
			"name":"Sphere",
			"primitives":[
				{
					"attributes":{
						"POSITION":12,
						"NORMAL":13,
						"TEXCOORD_0":14,
						"COLOR_0":15,
						"COLOR_1":16,
						"COLOR_2":17
					},
					"indices":18,
					"material":2
				}
			]
		},
		{
			"name":"Circle",
			"primitives":[
				{
					"attributes":{
						"POSITION":19,
						"NORMAL":20,
						"TEXCOORD_0":21,
						"COLOR_0":22,
						"COLOR_1":23,
						"COLOR_2":24
					},
					"indices":25,
					"material":3
				}
			]
		},
		{
			"name":"BezierCurve",
			"primitives":[
				{
					"attributes":{
						"POSITION":26,
						"NORMAL":27,
						"TEXCOORD_0":28
					},
					"indices":29,
					"material":4
				}
			]
		},
		{
			"name":"Circle.001",
			"primitives":[
				{
					"attributes":{
						"POSITION":30,
						"NORMAL":31,
						"TEXCOORD_0":32
					},
					"indices":33,
					"material":5
				}
			]
		},
		{
			"name":"Cube.001",
			"primitives":[
				{
					"attributes":{
						"POSITION":34,
						"NORMAL":35,
						"TEXCOORD_0":36
					},
					"indices":37,
					"material":6
				}
			]
		},
		{
			"name":"Cube.002",
			"primitives":[
				{
					"attributes":{
						"POSITION":38,
						"NORMAL":39,
						"TEXCOORD_0":40
					},
					"indices":41,
					"material":7
				}
			]
		},
		{
			"name":"BezierCurve.005",
			"primitives":[
				{
					"attributes":{
						"POSITION":42,
						"NORMAL":43,
						"TEXCOORD_0":44
					},
					"indices":45,
					"material":7
				}
			]
		},
		{
			"name":"\u043c\u0430\u043d\u0438\u043a\u0435\u043d",
			"primitives":[
				{
					"attributes":{
						"POSITION":46,
						"NORMAL":47,
						"TEXCOORD_0":48
					},
					"indices":49,
					"material":8
				}
			]
		}
	],
	"accessors":[
		{
			"bufferView":0,
			"componentType":5126,
			"count":256,
			"max":[
				1.040328860282898,
				1.9707244634628296,
				0.8685847520828247
			],
			"min":[
				-2.1758270263671875,
				-2.496187448501587,
				-1.3221828937530518
			],
			"type":"VEC3"
		},
		{
			"bufferView":1,
			"componentType":5126,
			"count":256,
			"type":"VEC3"
		},
		{
			"bufferView":2,
			"componentType":5126,
			"count":256,
			"type":"VEC2"
		},
		{
			"bufferView":3,
			"componentType":5123,
			"count":966,
			"type":"SCALAR"
		},
		{
			"bufferView":4,
			"componentType":5126,
			"count":289,
			"max":[
				0.9596537351608276,
				1.9702162742614746,
				3.434051275253296
			],
			"min":[
				-2.0629446506500244,
				-2.362178087234497,
				1.3223847150802612
			],
			"type":"VEC3"
		},
		{
			"bufferView":5,
			"componentType":5126,
			"count":289,
			"type":"VEC3"
		},
		{
			"bufferView":6,
			"componentType":5126,
			"count":289,
			"type":"VEC2"
		},
		{
			"bufferView":7,
			"componentType":5123,
			"count":1206,
			"type":"SCALAR"
		},
		{
			"bufferView":8,
			"componentType":5126,
			"count":143,
			"max":[
				1.1300147771835327,
				0.2653767466545105,
				4.948811054229736
			],
			"min":[
				-1.1410726308822632,
				-15.15656566619873,
				-5.428028106689453
			],
			"type":"VEC3"
		},
		{
			"bufferView":9,
			"componentType":5126,
			"count":143,
			"type":"VEC3"
		},
		{
			"bufferView":10,
			"componentType":5126,
			"count":143,
			"type":"VEC2"
		},
		{
			"bufferView":11,
			"componentType":5123,
			"count":360,
			"type":"SCALAR"
		},
		{
			"bufferView":12,
			"componentType":5126,
			"count":9361,
			"max":[
				1.0661883354187012,
				2.3802709579467773,
				1.2405509948730469
			],
			"min":[
				-1.5574896335601807,
				-2.0022287368774414,
				-1.1196503639221191
			],
			"type":"VEC3"
		},
		{
			"bufferView":13,
			"componentType":5126,
			"count":9361,
			"type":"VEC3"
		},
		{
			"bufferView":14,
			"componentType":5126,
			"count":9361,
			"type":"VEC2"
		},
		{
			"bufferView":15,
			"componentType":5121,
			"count":9361,
			"normalized":true,
			"type":"VEC4"
		},
		{
			"bufferView":16,
			"componentType":5123,
			"count":9361,
			"normalized":true,
			"type":"VEC4"
		},
		{
			"bufferView":17,
			"componentType":5123,
			"count":9361,
			"normalized":true,
			"type":"VEC4"
		},
		{
			"bufferView":18,
			"componentType":5123,
			"count":22788,
			"type":"SCALAR"
		},
		{
			"bufferView":19,
			"componentType":5126,
			"count":2811,
			"max":[
				4.243793487548828,
				25.497695922851562,
				3.7760262489318848
			],
			"min":[
				-9.206497192382812,
				-23.253087997436523,
				-33.826595306396484
			],
			"type":"VEC3"
		},
		{
			"bufferView":20,
			"componentType":5126,
			"count":2811,
			"type":"VEC3"
		},
		{
			"bufferView":21,
			"componentType":5126,
			"count":2811,
			"type":"VEC2"
		},
		{
			"bufferView":22,
			"componentType":5121,
			"count":2811,
			"normalized":true,
			"type":"VEC4"
		},
		{
			"bufferView":23,
			"componentType":5123,
			"count":2811,
			"normalized":true,
			"type":"VEC4"
		},
		{
			"bufferView":24,
			"componentType":5123,
			"count":2811,
			"normalized":true,
			"type":"VEC4"
		},
		{
			"bufferView":25,
			"componentType":5123,
			"count":7902,
			"type":"SCALAR"
		},
		{
			"bufferView":26,
			"componentType":5126,
			"count":6442,
			"max":[
				0.6089226007461548,
				12.809351921081543,
				3.7690088748931885
			],
			"min":[
				-1.2571498155593872,
				5.1331048011779785,
				-2.9763920307159424
			],
			"type":"VEC3"
		},
		{
			"bufferView":27,
			"componentType":5126,
			"count":6442,
			"type":"VEC3"
		},
		{
			"bufferView":28,
			"componentType":5126,
			"count":6442,
			"type":"VEC2"
		},
		{
			"bufferView":29,
			"componentType":5123,
			"count":17292,
			"type":"SCALAR"
		},
		{
			"bufferView":30,
			"componentType":5126,
			"count":1025,
			"max":[
				5.427055358886719,
				10.136090278625488,
				1.0726968050003052
			],
			"min":[
				-5.6368231773376465,
				-8.210217475891113,
				-23.44404411315918
			],
			"type":"VEC3"
		},
		{
			"bufferView":31,
			"componentType":5126,
			"count":1025,
			"type":"VEC3"
		},
		{
			"bufferView":32,
			"componentType":5126,
			"count":1025,
			"type":"VEC2"
		},
		{
			"bufferView":33,
			"componentType":5123,
			"count":3786,
			"type":"SCALAR"
		},
		{
			"bufferView":34,
			"componentType":5126,
			"count":1409,
			"max":[
				0.9246808886528015,
				0.9834460020065308,
				2.091583013534546
			],
			"min":[
				-0.9253163933753967,
				-1.362094521522522,
				-4.710472106933594
			],
			"type":"VEC3"
		},
		{
			"bufferView":35,
			"componentType":5126,
			"count":1409,
			"type":"VEC3"
		},
		{
			"bufferView":36,
			"componentType":5126,
			"count":1409,
			"type":"VEC2"
		},
		{
			"bufferView":37,
			"componentType":5123,
			"count":6390,
			"type":"SCALAR"
		},
		{
			"bufferView":38,
			"componentType":5126,
			"count":80,
			"max":[
				1.038095474243164,
				0.9795832633972168,
				2.434532403945923
			],
			"min":[
				-1.0317245721817017,
				-2.5949957370758057,
				-2.866847276687622
			],
			"type":"VEC3"
		},
		{
			"bufferView":39,
			"componentType":5126,
			"count":80,
			"type":"VEC3"
		},
		{
			"bufferView":40,
			"componentType":5126,
			"count":80,
			"type":"VEC2"
		},
		{
			"bufferView":41,
			"componentType":5123,
			"count":303,
			"type":"SCALAR"
		},
		{
			"bufferView":42,
			"componentType":5126,
			"count":11698,
			"max":[
				2.4637696743011475,
				4.983687877655029,
				2.870704174041748
			],
			"min":[
				-2.4570536613464355,
				0.7538628578186035,
				-2.594088077545166
			],
			"type":"VEC3"
		},
		{
			"bufferView":43,
			"componentType":5126,
			"count":11698,
			"type":"VEC3"
		},
		{
			"bufferView":44,
			"componentType":5126,
			"count":11698,
			"type":"VEC2"
		},
		{
			"bufferView":45,
			"componentType":5123,
			"count":20787,
			"type":"SCALAR"
		},
		{
			"bufferView":46,
			"componentType":5126,
			"count":1068,
			"max":[
				0.6918860077857971,
				0.16680799424648285,
				0.8567649722099304
			],
			"min":[
				-0.6788300275802612,
				-0.52948397397995,
				-1.5830960273742676
			],
			"type":"VEC3"
		},
		{
			"bufferView":47,
			"componentType":5126,
			"count":1068,
			"type":"VEC3"
		},
		{
			"bufferView":48,
			"componentType":5126,
			"count":1068,
			"type":"VEC2"
		},
		{
			"bufferView":49,
			"componentType":5123,
			"count":4098,
			"type":"SCALAR"
		}
	],
	"bufferViews":[
		{
			"buffer":0,
			"byteLength":3072,
			"byteOffset":0,
			"target":34962
		},
		{
			"buffer":0,
			"byteLength":3072,
			"byteOffset":3072,
			"target":34962
		},
		{
			"buffer":0,
			"byteLength":2048,
			"byteOffset":6144,
			"target":34962
		},
		{
			"buffer":0,
			"byteLength":1932,
			"byteOffset":8192,
			"target":34963
		},
		{
			"buffer":0,
			"byteLength":3468,
			"byteOffset":10124,
			"target":34962
		},
		{
			"buffer":0,
			"byteLength":3468,
			"byteOffset":13592,
			"target":34962
		},
		{
			"buffer":0,
			"byteLength":2312,
			"byteOffset":17060,
			"target":34962
		},
		{
			"buffer":0,
			"byteLength":2412,
			"byteOffset":19372,
			"target":34963
		},
		{
			"buffer":0,
			"byteLength":1716,
			"byteOffset":21784,
			"target":34962
		},
		{
			"buffer":0,
			"byteLength":1716,
			"byteOffset":23500,
			"target":34962
		},
		{
			"buffer":0,
			"byteLength":1144,
			"byteOffset":25216,
			"target":34962
		},
		{
			"buffer":0,
			"byteLength":720,
			"byteOffset":26360,
			"target":34963
		},
		{
			"buffer":0,
			"byteLength":112332,
			"byteOffset":27080,
			"target":34962
		},
		{
			"buffer":0,
			"byteLength":112332,
			"byteOffset":139412,
			"target":34962
		},
		{
			"buffer":0,
			"byteLength":74888,
			"byteOffset":251744,
			"target":34962
		},
		{
			"buffer":0,
			"byteLength":37444,
			"byteOffset":326632,
			"target":34962
		},
		{
			"buffer":0,
			"byteLength":74888,
			"byteOffset":364076,
			"target":34962
		},
		{
			"buffer":0,
			"byteLength":74888,
			"byteOffset":438964,
			"target":34962
		},
		{
			"buffer":0,
			"byteLength":45576,
			"byteOffset":513852,
			"target":34963
		},
		{
			"buffer":0,
			"byteLength":33732,
			"byteOffset":559428,
			"target":34962
		},
		{
			"buffer":0,
			"byteLength":33732,
			"byteOffset":593160,
			"target":34962
		},
		{
			"buffer":0,
			"byteLength":22488,
			"byteOffset":626892,
			"target":34962
		},
		{
			"buffer":0,
			"byteLength":11244,
			"byteOffset":649380,
			"target":34962
		},
		{
			"buffer":0,
			"byteLength":22488,
			"byteOffset":660624,
			"target":34962
		},
		{
			"buffer":0,
			"byteLength":22488,
			"byteOffset":683112,
			"target":34962
		},
		{
			"buffer":0,
			"byteLength":15804,
			"byteOffset":705600,
			"target":34963
		},
		{
			"buffer":0,
			"byteLength":77304,
			"byteOffset":721404,
			"target":34962
		},
		{
			"buffer":0,
			"byteLength":77304,
			"byteOffset":798708,
			"target":34962
		},
		{
			"buffer":0,
			"byteLength":51536,
			"byteOffset":876012,
			"target":34962
		},
		{
			"buffer":0,
			"byteLength":34584,
			"byteOffset":927548,
			"target":34963
		},
		{
			"buffer":0,
			"byteLength":12300,
			"byteOffset":962132,
			"target":34962
		},
		{
			"buffer":0,
			"byteLength":12300,
			"byteOffset":974432,
			"target":34962
		},
		{
			"buffer":0,
			"byteLength":8200,
			"byteOffset":986732,
			"target":34962
		},
		{
			"buffer":0,
			"byteLength":7572,
			"byteOffset":994932,
			"target":34963
		},
		{
			"buffer":0,
			"byteLength":16908,
			"byteOffset":1002504,
			"target":34962
		},
		{
			"buffer":0,
			"byteLength":16908,
			"byteOffset":1019412,
			"target":34962
		},
		{
			"buffer":0,
			"byteLength":11272,
			"byteOffset":1036320,
			"target":34962
		},
		{
			"buffer":0,
			"byteLength":12780,
			"byteOffset":1047592,
			"target":34963
		},
		{
			"buffer":0,
			"byteLength":960,
			"byteOffset":1060372,
			"target":34962
		},
		{
			"buffer":0,
			"byteLength":960,
			"byteOffset":1061332,
			"target":34962
		},
		{
			"buffer":0,
			"byteLength":640,
			"byteOffset":1062292,
			"target":34962
		},
		{
			"buffer":0,
			"byteLength":606,
			"byteOffset":1062932,
			"target":34963
		},
		{
			"buffer":0,
			"byteLength":140376,
			"byteOffset":1063540,
			"target":34962
		},
		{
			"buffer":0,
			"byteLength":140376,
			"byteOffset":1203916,
			"target":34962
		},
		{
			"buffer":0,
			"byteLength":93584,
			"byteOffset":1344292,
			"target":34962
		},
		{
			"buffer":0,
			"byteLength":41574,
			"byteOffset":1437876,
			"target":34963
		},
		{
			"buffer":0,
			"byteLength":12816,
			"byteOffset":1479452,
			"target":34962
		},
		{
			"buffer":0,
			"byteLength":12816,
			"byteOffset":1492268,
			"target":34962
		},
		{
			"buffer":0,
			"byteLength":8544,
			"byteOffset":1505084,
			"target":34962
		},
		{
			"buffer":0,
			"byteLength":8196,
			"byteOffset":1513628,
			"target":34963
		}
	],
	"buffers":[
		{
			"byteLength":1521824,
			"uri":"avatar.bin"
		}
	]
}
