{
	"asset":{
		"generator":"Khronos glTF Blender I/O v4.3.47",
		"version":"2.0"
	},
	"extensionsUsed":[
		"KHR_materials_clearcoat",
		"KHR_materials_specular",
		"KHR_materials_sheen",
		"KHR_materials_ior"
	],
	"scene":0,
	"scenes":[
		{
			"name":"Scene",
			"nodes":[
				0,
				1,
				2,
				3
			]
		}
	],
	"nodes":[
		{
			"mesh":0,
			"name":"Sphere",
			"rotation":[
				0,
				-0.7071068286895752,
				0,
				0.7071068286895752
			],
			"scale":[
				0.5447631478309631,
				0.5447631478309631,
				0.5447631478309631
			],
			"translation":[
				0.281428724527359,
				0.16075396537780762,
				0.14713728427886963
			]
		},
		{
			"mesh":1,
			"name":"Sphere.001",
			"rotation":[
				0,
				-0.7071068286895752,
				0,
				0.7071068286895752
			],
			"scale":[
				0.5447631478309631,
				0.5447631478309631,
				0.5447631478309631
			],
			"translation":[
				0.19142872095108032,
				0.1607537567615509,
				0.09713733196258545
			]
		},
		{
			"mesh":2,
			"name":"Plane",
			"rotation":[
				0,
				-0.7071068286895752,
				0,
				0.7071068286895752
			],
			"scale":[
				0.06966463476419449,
				0.06966463476419449,
				0.06966463476419449
			],
			"translation":[
				-0.3799898028373718,
				1.768168568611145,
				-0.04379837214946747
			]
		},
		{
			"name":"Empty",
			"rotation":[
				0.5,
				0.5,
				-0.5,
				0.5
			],
			"scale":[
				1.7594573497772217,
				1.7594573497772217,
				1.7594573497772217
			],
			"translation":[
				-2.9254448413848877,
				3.490358352661133,
				0.06052640452980995
			]
		}
	],
	"materials":[
		{
			"doubleSided":true,
			"extensions":{
				"KHR_materials_clearcoat":{
					"clearcoatFactor":0.13977272808551788,
					"clearcoatRoughnessFactor":0.24818181991577148
				},
				"KHR_materials_specular":{
					"specularColorFactor":[
						0.8663636445999146,
						0.8663636445999146,
						0.8663636445999146
					]
				},
				"KHR_materials_sheen":{
					"sheenColorFactor":[
						1.0,
						1.0,
						1.0
					],
					"sheenRoughnessFactor":0.5
				},
				"KHR_materials_ior":{
					"ior":2.25
				}
			},
			"name":"Material.001",
			"pbrMetallicRoughness":{
				"baseColorTexture":{
					"index":0
				},
				"metallicFactor":0,
				"roughnessFactor":0.09031618386507034
			}
		},
		{
			"doubleSided":true,
			"name":"Material.006",
			"pbrMetallicRoughness":{
				"baseColorTexture":{
					"index":1
				},
				"metallicFactor":0,
				"roughnessFactor":0.2818181812763214
			}
		}
	],
	"meshes":[
		{
			"name":"Sphere.001",
			"primitives":[
				{
					"attributes":{
						"POSITION":0,
						"NORMAL":1,
						"TEXCOORD_0":2
					},
					"indices":3,
					"material":0
				}
			]
		},
		{
			"name":"Sphere.004",
			"primitives":[
				{
					"attributes":{
						"POSITION":4,
						"NORMAL":5,
						"TEXCOORD_0":6
					},
					"indices":7,
					"material":0
				}
			]
		},
		{
			"name":"Plane",
			"primitives":[
				{
					"attributes":{
						"POSITION":8,
						"NORMAL":9,
						"TEXCOORD_0":10
					},
					"indices":11,
					"material":1
				}
			]
		}
	],
	"textures":[
		{
			"sampler":0,
			"source":0
		},
		{
			"sampler":0,
			"source":1
		}
	],
	"images":[
		{
			"mimeType":"image/jpeg",
			"name":"1",
			"uri":"1.jpg"
		},
		{
			"mimeType":"image/jpeg",
			"name":"2",
			"uri":"2.jpg"
		}
	],
	"accessors":[
		{
			"bufferView":0,
			"componentType":5126,
			"count":256,
			"max":[
				1.040328860282898,
				1.9707244634628296,
				0.8685847520828247
			],
			"min":[
				-2.1758270263671875,
				-2.496187448501587,
				-1.3221828937530518
			],
			"type":"VEC3"
		},
		{
			"bufferView":1,
			"componentType":5126,
			"count":256,
			"type":"VEC3"
		},
		{
			"bufferView":2,
			"componentType":5126,
			"count":256,
			"type":"VEC2"
		},
		{
			"bufferView":3,
			"componentType":5123,
			"count":966,
			"type":"SCALAR"
		},
		{
			"bufferView":4,
			"componentType":5126,
			"count":288,
			"max":[
				0.9596537351608276,
				1.9702162742614746,
				3.434051275253296
			],
			"min":[
				-2.0629446506500244,
				-2.362178087234497,
				1.3223847150802612
			],
			"type":"VEC3"
		},
		{
			"bufferView":5,
			"componentType":5126,
			"count":288,
			"type":"VEC3"
		},
		{
			"bufferView":6,
			"componentType":5126,
			"count":288,
			"type":"VEC2"
		},
		{
			"bufferView":7,
			"componentType":5123,
			"count":1206,
			"type":"SCALAR"
		},
		{
			"bufferView":8,
			"componentType":5126,
			"count":143,
			"max":[
				1.1300147771835327,
				0.2653767466545105,
				4.948811054229736
			],
			"min":[
				-1.1410726308822632,
				-15.15656566619873,
				-5.428028106689453
			],
			"type":"VEC3"
		},
		{
			"bufferView":9,
			"componentType":5126,
			"count":143,
			"type":"VEC3"
		},
		{
			"bufferView":10,
			"componentType":5126,
			"count":143,
			"type":"VEC2"
		},
		{
			"bufferView":11,
			"componentType":5123,
			"count":360,
			"type":"SCALAR"
		}
	],
	"bufferViews":[
		{
			"buffer":0,
			"byteLength":3072,
			"byteOffset":0,
			"target":34962
		},
		{
			"buffer":0,
			"byteLength":3072,
			"byteOffset":3072,
			"target":34962
		},
		{
			"buffer":0,
			"byteLength":2048,
			"byteOffset":6144,
			"target":34962
		},
		{
			"buffer":0,
			"byteLength":1932,
			"byteOffset":8192,
			"target":34963
		},
		{
			"buffer":0,
			"byteLength":3456,
			"byteOffset":10124,
			"target":34962
		},
		{
			"buffer":0,
			"byteLength":3456,
			"byteOffset":13580,
			"target":34962
		},
		{
			"buffer":0,
			"byteLength":2304,
			"byteOffset":17036,
			"target":34962
		},
		{
			"buffer":0,
			"byteLength":2412,
			"byteOffset":19340,
			"target":34963
		},
		{
			"buffer":0,
			"byteLength":1716,
			"byteOffset":21752,
			"target":34962
		},
		{
			"buffer":0,
			"byteLength":1716,
			"byteOffset":23468,
			"target":34962
		},
		{
			"buffer":0,
			"byteLength":1144,
			"byteOffset":25184,
			"target":34962
		},
		{
			"buffer":0,
			"byteLength":720,
			"byteOffset":26328,
			"target":34963
		}
	],
	"samplers":[
		{
			"magFilter":9729,
			"minFilter":9987
		}
	],
	"buffers":[
		{
			"byteLength":27048,
			"uri":"lungs.bin"
		}
	]
}
