{
	"asset":{
		"generator":"Khronos glTF Blender I/O v4.3.47",
		"version":"2.0"
	},
	"extensionsUsed":[
		"KHR_materials_specular",
		"KHR_materials_ior"
	],
	"scene":0,
	"scenes":[
		{
			"name":"Scene",
			"nodes":[
				0,
				1
			]
		}
	],
	"nodes":[
		{
			"mesh":0,
			"name":"Cube",
			"scale":[
				0.2648974061012268,
				0.15380021929740906,
				0.15880264341831207
			],
			"translation":[
				0.020401619374752045,
				0.1856367290019989,
				-0.11156654357910156
			]
		},
		{
			"mesh":1,
			"name":"BezierCurve",
			"scale":[
				0.20673617720603943,
				0.20673617720603943,
				0.23632362484931946
			],
			"translation":[
				0.020401597023010254,
				-0.4254251718521118,
				-0.16675472259521484
			]
		}
	],
	"materials":[
		{
			"doubleSided":true,
			"extensions":{
				"KHR_materials_specular":{
					"specularFactor":0.8545454740524292
				},
				"KHR_materials_ior":{
					"ior":1.4500000476837158
				}
			},
			"name":"brain",
			"pbrMetallicRoughness":{
				"baseColorTexture":{
					"index":0
				},
				"metallicFactor":0,
				"roughnessFactor":0.07727272808551788
			}
		}
	],
	"meshes":[
		{
			"name":"Cube.003",
			"primitives":[
				{
					"attributes":{
						"POSITION":0,
						"NORMAL":1,
						"TEXCOORD_0":2
					},
					"indices":3,
					"material":0
				}
			]
		},
		{
			"name":"BezierCurve.005",
			"primitives":[
				{
					"attributes":{
						"POSITION":4,
						"NORMAL":5,
						"TEXCOORD_0":6
					},
					"indices":7,
					"material":0
				}
			]
		}
	],
	"textures":[
		{
			"sampler":0,
			"source":0
		}
	],
	"images":[
		{
			"mimeType":"image/jpeg",
			"name":"photo_5224555303444540277_y",
			"uri":"brain.jpg"
		}
	],
	"accessors":[
		{
			"bufferView":0,
			"componentType":5126,
			"count":80,
			"max":[
				1.038095474243164,
				0.9795832633972168,
				2.434532403945923
			],
			"min":[
				-1.0317245721817017,
				-2.5949957370758057,
				-2.866847276687622
			],
			"type":"VEC3"
		},
		{
			"bufferView":1,
			"componentType":5126,
			"count":80,
			"type":"VEC3"
		},
		{
			"bufferView":2,
			"componentType":5126,
			"count":80,
			"type":"VEC2"
		},
		{
			"bufferView":3,
			"componentType":5123,
			"count":303,
			"type":"SCALAR"
		},
		{
			"bufferView":4,
			"componentType":5126,
			"count":11696,
			"max":[
				2.4637696743011475,
				4.983687877655029,
				2.870704174041748
			],
			"min":[
				-2.4570536613464355,
				0.7538628578186035,
				-2.594088077545166
			],
			"type":"VEC3"
		},
		{
			"bufferView":5,
			"componentType":5126,
			"count":11696,
			"type":"VEC3"
		},
		{
			"bufferView":6,
			"componentType":5126,
			"count":11696,
			"type":"VEC2"
		},
		{
			"bufferView":7,
			"componentType":5123,
			"count":20787,
			"type":"SCALAR"
		}
	],
	"bufferViews":[
		{
			"buffer":0,
			"byteLength":960,
			"byteOffset":0,
			"target":34962
		},
		{
			"buffer":0,
			"byteLength":960,
			"byteOffset":960,
			"target":34962
		},
		{
			"buffer":0,
			"byteLength":640,
			"byteOffset":1920,
			"target":34962
		},
		{
			"buffer":0,
			"byteLength":606,
			"byteOffset":2560,
			"target":34963
		},
		{
			"buffer":0,
			"byteLength":140352,
			"byteOffset":3168,
			"target":34962
		},
		{
			"buffer":0,
			"byteLength":140352,
			"byteOffset":143520,
			"target":34962
		},
		{
			"buffer":0,
			"byteLength":93568,
			"byteOffset":283872,
			"target":34962
		},
		{
			"buffer":0,
			"byteLength":41574,
			"byteOffset":377440,
			"target":34963
		}
	],
	"samplers":[
		{
			"magFilter":9729,
			"minFilter":9987
		}
	],
	"buffers":[
		{
			"byteLength":419016,
			"uri":"brain.bin"
		}
	]
}
